<svg xmlns="http://www.w3.org/2000/svg" viewBox="0 0 640 800" role="img" aria-labelledby="title desc">
  <title id="title">Ruixue Ai profile mark</title>
  <desc id="desc">A monogram profile artwork with biomedical network and oral-health research motifs.</desc>
  <defs>
    <linearGradient id="bg" x1="100" y1="80" x2="560" y2="720" gradientUnits="userSpaceOnUse">
      <stop offset="0" stop-color="#eef8f6"/>
      <stop offset=".52" stop-color="#dbe9f7"/>
      <stop offset="1" stop-color="#f7efe8"/>
    </linearGradient>
    <linearGradient id="ring" x1="142" y1="168" x2="520" y2="640" gradientUnits="userSpaceOnUse">
      <stop offset="0" stop-color="#0d746f"/>
      <stop offset=".54" stop-color="#315f90"/>
      <stop offset="1" stop-color="#a85134"/>
    </linearGradient>
    <filter id="shadow" x="-20%" y="-20%" width="140%" height="140%">
      <feDropShadow dx="0" dy="18" stdDeviation="22" flood-color="#1a2027" flood-opacity=".16"/>
    </filter>
  </defs>
  <rect width="640" height="800" rx="34" fill="url(#bg)"/>
  <g opacity=".52" stroke="#315f90" stroke-width="3" fill="none">
    <path d="M98 602c72-64 141-86 207-64 95 31 162-9 234-92"/>
    <path d="M93 296c88 18 153-2 196-61 42-58 104-77 185-57"/>
    <path d="M140 192c24 87 73 130 146 131 78 2 132 43 163 125"/>
  </g>
  <g opacity=".78">
    <circle cx="117" cy="606" r="10" fill="#0d746f"/>
    <circle cx="305" cy="537" r="12" fill="#315f90"/>
    <circle cx="541" cy="445" r="10" fill="#a85134"/>
    <circle cx="94" cy="296" r="9" fill="#a85134"/>
    <circle cx="291" cy="235" r="11" fill="#0d746f"/>
    <circle cx="475" cy="178" r="9" fill="#315f90"/>
    <circle cx="141" cy="194" r="8" fill="#315f90"/>
    <circle cx="286" cy="323" r="12" fill="#a85134"/>
    <circle cx="449" cy="448" r="10" fill="#0d746f"/>
  </g>
  <g filter="url(#shadow)">
    <circle cx="320" cy="392" r="184" fill="#ffffff" opacity=".94"/>
    <circle cx="320" cy="392" r="162" fill="none" stroke="url(#ring)" stroke-width="12"/>
    <path d="M223 466c33-98 65-161 96-189 31 27 64 90 98 189" fill="none" stroke="#0d746f" stroke-width="24" stroke-linecap="round" stroke-linejoin="round"/>
    <path d="M257 397h125" fill="none" stroke="#0d746f" stroke-width="21" stroke-linecap="round"/>
    <path d="M422 294v172" fill="none" stroke="#315f90" stroke-width="24" stroke-linecap="round"/>
    <path d="M422 294c51 8 80 38 80 78s-31 68-80 73" fill="none" stroke="#315f90" stroke-width="24" stroke-linecap="round" stroke-linejoin="round"/>
  </g>
  <g font-family="Inter, Arial, sans-serif" text-anchor="middle">
    <text x="320" y="690" fill="#1a2027" font-size="34" font-weight="800">Ruixue Ai</text>
    <text x="320" y="728" fill="#5d6872" font-size="20" font-weight="700">Aging · Oral Medicine · AI</text>
  </g>
</svg>
